<?xml version="1.0" standalone="no"?>
<!DOCTYPE svg PUBLIC "-//W3C//DTD SVG 20010904//EN"
 "http://www.w3.org/TR/2001/REC-SVG-20010904/DTD/svg10.dtd">
<svg version="1.0" xmlns="http://www.w3.org/2000/svg"
 width="872.000000pt" height="802.000000pt" viewBox="0 0 872.000000 802.000000"
 preserveAspectRatio="xMidYMid meet">

<g transform="translate(0.000000,802.000000) scale(0.100000,-0.100000)"
fill="#000000" stroke="none">
<path d="M4487 6824 c-43 -47 -160 -113 -249 -139 l-57 -16 -3 -342 c-2 -188
-2 -858 0 -1489 l2 -1148 55 0 55 0 -2 1088 -3 1087 -27 49 c-33 57 -38 95 -9
57 17 -22 23 -23 72 -17 30 4 64 9 75 12 15 4 32 -4 55 -24 l34 -30 -3 -1480
-3 -1480 68 -7 c65 -7 134 -33 148 -55 10 -15 35 -12 35 5 0 8 -15 24 -32 35
-27 16 -29 20 -12 20 38 0 129 -32 214 -75 l85 -44 164 -2 164 -3 47 51 c25
27 52 68 59 91 l14 42 131 0 c72 0 137 4 144 9 22 14 -31 22 -132 21 -147 -2
-146 -2 -155 23 -15 38 -77 102 -138 143 -32 21 -66 47 -76 56 -10 10 -21 18
-25 18 -13 0 -8 46 6 62 10 13 10 17 1 20 -24 8 1 25 53 36 29 6 93 17 141 23
l88 11 70 -53 c77 -59 149 -144 182 -216 62 -139 -5 -312 -166 -427 -122 -87
-267 -156 -415 -196 l-75 -21 -66 35 c-79 41 -180 80 -188 72 -3 -3 7 -10 23
-16 41 -15 124 -59 158 -83 34 -24 29 -28 -64 -51 -202 -49 -689 -70 -960 -42
-85 9 -199 24 -252 33 -94 15 -98 15 -145 -5 -96 -41 -446 -92 -512 -75 -47
12 -15 20 102 26 113 5 296 32 392 58 25 6 45 19 50 32 6 13 46 39 98 65 49
24 87 46 84 48 -7 7 -151 -52 -195 -79 -32 -21 -44 -23 -92 -16 -68 9 -79 12
-107 27 -13 7 -23 9 -23 5 0 -4 -4 -1 -10 7 -5 8 -12 11 -15 8 -11 -11 6 -30
21 -24 8 3 14 -1 14 -9 0 -8 8 -15 17 -15 27 0 7 -11 -38 -21 -62 -14 -266
-39 -321 -39 -43 0 -49 3 -82 43 -71 86 -89 162 -102 427 -8 173 -8 174 20
235 27 59 96 131 204 213 49 37 72 61 72 75 0 36 -50 187 -90 271 -37 78 -117
194 -155 226 -15 13 -19 12 -36 -9 -12 -14 -23 -20 -31 -15 -8 5 -6 -3 4 -18
16 -25 16 -26 -2 -21 -11 3 -20 12 -20 19 0 20 -17 17 -24 -3 -6 -15 -8 -15
-16 -3 -6 8 -10 12 -11 8 -8 -45 -21 -69 -34 -64 -7 2 -23 -3 -35 -11 -18 -13
-24 -13 -31 -2 -6 11 -9 10 -15 -5 -4 -11 -2 -21 7 -27 10 -6 10 -9 2 -9 -22
0 -28 5 -25 22 2 9 -2 19 -8 23 -9 5 -14 -14 -13 -52 0 -6 -5 -9 -12 -7 -7 3
-16 0 -20 -6 -4 -6 -14 -8 -24 -5 -19 6 -34 -7 -82 -70 -21 -27 -29 -33 -25
-17 5 14 3 22 -4 22 -17 0 -42 -28 -35 -40 3 -5 -1 -10 -9 -10 -9 0 -16 -8
-17 -17 0 -15 -2 -15 -9 2 -5 11 -9 14 -9 8 -1 -7 -8 -13 -16 -13 -17 0 -20
16 -5 25 6 3 10 11 10 17 0 7 -9 2 -21 -10 -11 -12 -17 -27 -14 -32 10 -17 -7
-11 -22 8 -14 16 -14 16 -9 0 3 -12 0 -18 -9 -18 -8 0 -15 -5 -15 -10 0 -6 -6
-5 -14 2 -14 14 -10 42 5 32 5 -3 9 0 9 5 0 6 -4 11 -10 11 -13 0 -28 -32 -23
-47 3 -7 -3 -13 -12 -13 -13 0 -16 -6 -12 -22 6 -21 5 -22 -8 -5 -8 12 -15 14
-20 8 -9 -16 -25 -13 -25 4 0 23 -15 18 -30 -9 -7 -14 -20 -28 -28 -31 -13 -5
-13 -3 1 13 9 10 14 21 11 24 -8 9 -44 -24 -44 -40 0 -7 -5 -10 -11 -6 -8 4
-8 9 0 17 16 16 13 31 -3 18 -10 -8 -16 -9 -21 -2 -4 7 -15 5 -31 -5 -13 -9
-24 -12 -24 -8 0 5 -9 -2 -20 -16 l-19 -25 6 24 c4 16 2 22 -5 18 -5 -4 -13
-1 -15 5 -3 7 -4 -1 -2 -19 3 -26 0 -31 -12 -26 -9 4 -14 2 -11 -3 4 -5 -5 -9
-18 -9 -13 0 -24 6 -24 13 0 6 -9 12 -20 12 -11 0 -20 -4 -20 -10 0 -5 -5 -10
-11 -10 -5 0 -7 5 -4 10 3 6 -1 10 -9 10 -9 0 -16 4 -16 8 0 10 -30 9 -48 -2
-7 -4 -10 -11 -7 -16 3 -5 1 -12 -5 -15 -6 -4 -10 -3 -9 2 3 12 -12 43 -21 43
-5 0 -12 -9 -15 -20 -7 -23 -35 -27 -35 -6 0 8 -5 18 -10 21 -6 4 -9 1 -8 -6
2 -6 -3 -14 -11 -16 -9 -4 -11 0 -7 15 4 13 1 22 -9 26 -10 4 -15 -1 -15 -14
0 -27 -18 -25 -22 2 -3 22 -28 39 -28 18 0 -6 6 -8 13 -5 6 4 3 -1 -8 -10 -15
-12 -21 -13 -25 -3 -3 7 -18 14 -34 15 -32 2 -48 13 -28 20 14 5 16 23 3 23
-5 0 -14 -12 -19 -27 l-10 -28 -7 28 c-6 24 -10 26 -23 15 -13 -11 -15 -10 -9
5 4 10 7 23 7 28 0 6 5 7 11 4 6 -4 5 2 -3 14 -7 12 -17 21 -22 21 -4 0 -3 -6
3 -13 8 -11 6 -18 -9 -32 -20 -18 -21 -18 -43 4 l-22 23 23 -7 c12 -3 22 -2
22 3 0 14 -26 22 -37 11 -13 -13 -67 7 -58 21 3 5 0 10 -8 10 -20 0 -31 31
-15 42 9 5 8 8 -6 8 -13 0 -17 5 -13 20 9 34 -10 13 -42 -49 -17 -33 -43 -99
-58 -148 -24 -80 -27 -103 -27 -253 -1 -186 14 -264 80 -432 20 -51 37 -101
38 -111 3 -21 74 -117 87 -117 5 0 9 10 9 23 0 12 14 51 31 87 l30 64 21 -33
c37 -58 29 -156 -12 -156 -10 0 -20 -19 -29 -57 -7 -32 -16 -58 -20 -58 -4 0
-20 18 -37 40 -30 42 -44 49 -44 26 0 -8 -6 -16 -12 -18 -10 -4 -8 -18 5 -62
10 -32 16 -60 14 -63 -3 -2 -32 2 -64 10 -92 23 -137 29 -163 19 -23 -9 -23
-9 7 -15 45 -9 143 -54 143 -66 0 -6 -17 -11 -37 -12 -81 -2 -113 -28 -51 -41
156 -31 150 -30 353 -29 l91 1 12 33 c7 18 12 38 12 44 0 6 7 27 15 47 13 30
18 34 33 26 21 -12 311 -90 335 -90 9 0 17 -6 17 -13 0 -11 -98 -267 -105
-275 -3 -3 -51 11 -298 87 l-57 18 -6 -24 c-4 -14 -2 -29 3 -34 9 -9 215 -92
318 -128 44 -15 58 -16 115 -6 36 7 72 10 80 8 11 -4 12 -3 3 4 -9 6 22 18 91
36 113 29 141 33 116 16 -11 -7 -5 -8 23 -4 25 3 36 2 32 -5 -4 -6 -12 -10
-18 -9 -23 3 -37 -1 -37 -10 0 -5 8 -8 18 -6 88 18 121 28 116 36 -3 6 -15 7
-27 4 -18 -5 -19 -4 -7 4 12 9 12 13 2 19 -9 6 -2 12 22 19 39 12 62 -1 46
-27 -7 -12 -11 -12 -27 0 -17 13 -17 13 -2 -4 14 -14 25 -17 58 -11 23 4 38
11 35 16 -3 6 -14 7 -24 4 -12 -4 -19 1 -23 14 -3 14 3 23 24 31 28 12 49 7
49 -11 0 -6 -6 -6 -18 0 -11 6 -24 6 -33 0 -12 -7 -11 -9 3 -9 9 0 24 -7 33
-16 13 -14 19 -14 28 -4 9 10 9 11 -2 5 -11 -6 -13 -4 -8 9 4 10 7 26 7 36 0
22 36 32 79 24 39 -8 40 -24 2 -24 -18 0 -31 -6 -36 -17 -6 -17 -7 -17 -21 1
-10 14 -14 16 -14 5 1 -39 14 -42 101 -18 99 26 122 36 113 51 -5 7 1 9 18 5
34 -9 40 1 17 24 -20 20 -25 39 -10 39 5 0 7 9 4 20 -3 11 -12 20 -20 20 -15
0 -49 68 -59 119 -6 27 -3 31 22 36 16 3 67 18 114 33 47 15 90 28 96 30 6 2
21 -25 34 -60 12 -35 49 -116 82 -181 38 -77 57 -125 53 -138 -4 -10 -10 -19
-15 -19 -4 0 -11 -8 -14 -17 -6 -14 -2 -12 17 5 13 12 25 22 28 22 2 0 3 -18
1 -41 -4 -39 -6 -41 -32 -35 -28 5 -28 4 -23 -29 l6 -35 -81 0 c-70 0 -83 -3
-92 -19 -6 -13 -7 -22 0 -26 5 -3 91 -11 192 -16 166 -10 186 -9 235 7 29 10
54 16 56 13 12 -15 98 -192 94 -195 -2 -2 -16 5 -30 16 -30 24 -131 70 -152
70 -8 0 -22 -17 -30 -37 -8 -20 -24 -43 -35 -50 -11 -8 -20 -20 -20 -27 0 -38
191 -76 382 -76 84 0 127 -4 123 -10 -3 -6 5 -10 19 -10 20 0 35 16 80 82 111
167 304 277 514 294 100 8 199 -13 307 -65 128 -62 288 -201 262 -228 -4 -3
-7 1 -7 10 0 8 -9 19 -20 22 -11 3 -20 12 -20 20 0 17 -47 48 -55 35 -3 -6 -3
-14 0 -20 3 -6 -1 -10 -9 -10 -9 0 -16 4 -16 10 0 5 -11 12 -25 16 -14 3 -25
10 -25 15 0 5 -7 9 -15 9 -8 0 -15 7 -15 15 0 8 -5 15 -11 15 -5 0 -7 -4 -4
-10 4 -6 -29 -8 -90 -5 -95 5 -95 5 -92 -17 2 -13 2 -17 0 -10 -3 6 -15 12
-29 12 -21 0 -24 -5 -24 -35 0 -19 -4 -35 -10 -35 -5 0 -10 20 -10 45 0 26 -5
45 -11 45 -25 0 -116 -54 -173 -103 -121 -103 -157 -140 -145 -151 8 -8 13 -7
16 2 9 24 103 63 166 68 63 5 108 -5 247 -54 53 -19 54 -20 26 -27 -20 -6 -57
1 -130 24 -112 35 -159 38 -214 16 -46 -20 -76 -47 -107 -101 -17 -29 -30 -41
-42 -38 -159 35 -244 65 -285 101 -15 13 -18 12 -33 -11 -25 -37 -13 -72 33
-95 62 -32 190 -69 292 -86 115 -19 532 -39 615 -30 33 4 71 6 85 6 14 -1 56
4 94 10 49 8 65 14 55 21 -10 7 -5 8 14 3 20 -4 27 -2 22 6 -5 8 0 9 16 5 13
-3 18 -3 11 0 -8 4 -3 14 17 33 27 25 29 32 24 72 -4 24 -17 68 -30 97 -28 63
-29 81 -5 80 42 0 136 13 141 21 5 7 215 61 240 61 5 0 20 4 33 9 13 5 28 10
33 11 6 1 20 6 31 11 12 4 41 11 65 14 24 4 50 10 59 14 8 5 71 12 138 15 181
11 195 21 147 116 -14 27 -25 56 -25 65 0 8 -3 15 -7 15 -13 0 -126 -70 -150
-93 -13 -12 -23 -15 -23 -8 0 19 36 85 65 120 15 18 21 31 14 31 -7 0 -20 7
-30 16 -16 14 -19 12 -47 -28 -16 -24 -32 -53 -36 -65 -11 -36 -22 -27 -39 34
-14 52 -14 58 1 79 10 13 24 26 32 29 18 6 83 114 105 175 9 25 32 91 51 147
35 102 35 102 61 90 14 -6 20 -13 14 -15 -15 -5 -3 -22 15 -22 9 0 12 5 8 11
-5 8 5 9 33 4 l40 -6 14 61 13 61 40 -7 c22 -3 70 -15 106 -25 l65 -18 38 37
c46 45 47 57 2 35 -32 -15 -41 -15 -134 2 -114 21 -114 21 -93 104 31 124 93
203 226 290 133 86 287 125 389 98 27 -7 29 -5 67 75 66 136 87 306 54 419
-19 63 -64 153 -95 189 -11 14 -18 19 -14 12 9 -16 -4 -54 -16 -46 -5 3 -6 11
-2 17 4 7 0 6 -10 -2 -9 -7 -14 -17 -11 -22 3 -5 2 -8 -3 -7 -4 1 -19 -4 -31
-11 -13 -7 -26 -10 -29 -7 -3 3 -12 -2 -20 -10 -9 -8 -22 -13 -29 -10 -9 3
-14 -2 -14 -14 0 -13 -12 -25 -35 -34 -19 -8 -35 -22 -35 -30 0 -10 -10 -14
-32 -14 -18 1 -34 -4 -36 -10 -5 -15 -32 -3 -32 15 0 8 -4 12 -10 8 -5 -3 -6
-13 -3 -23 5 -14 3 -15 -8 -4 -15 14 -33 16 -25 3 7 -11 -20 -34 -32 -27 -6 3
-15 -1 -22 -9 -16 -19 -34 -19 -26 0 3 8 1 15 -4 15 -5 0 -10 -10 -12 -22 -2
-17 -9 -22 -25 -21 -15 2 -21 -2 -17 -11 3 -8 0 -17 -7 -22 -8 -4 -10 -3 -5 4
4 6 1 20 -5 30 -12 19 -12 19 -30 1 -11 -11 -19 -23 -19 -28 0 -5 -9 -11 -20
-14 -17 -4 -19 -1 -14 21 4 19 3 23 -4 13 -6 -8 -15 -10 -23 -6 -9 6 -11 4 -6
-7 4 -12 -2 -17 -24 -20 -16 -3 -29 -1 -29 4 0 4 -7 8 -15 8 -8 0 -15 6 -15
13 -1 7 -6 4 -15 -7 -15 -20 -37 -13 -28 9 3 8 0 15 -6 15 -6 0 -11 -6 -11
-14 0 -16 -27 -29 -35 -17 -3 5 -15 7 -28 4 -21 -6 -21 -6 3 15 28 24 15 30
-16 7 -25 -19 -60 -19 -68 1 -3 8 -11 12 -17 9 -6 -4 -8 -13 -5 -21 4 -11 0
-11 -19 2 -14 9 -25 20 -25 25 0 5 -5 9 -11 9 -6 0 -9 -7 -5 -15 4 -12 0 -14
-22 -9 -15 4 -32 13 -38 20 -6 8 -14 11 -17 7 -11 -11 24 100 44 137 53 101
175 226 267 273 l63 32 -6 65 c-8 77 -55 225 -95 295 -30 52 -125 165 -140
165 -5 0 -15 -6 -22 -13 -7 -7 -26 -22 -41 -32 -19 -12 -27 -24 -24 -37 6 -20
-3 -24 -20 -7 -9 9 -11 7 -9 -7 4 -25 -20 -48 -41 -39 -10 3 -14 3 -11 -1 10
-9 -17 -34 -36 -34 -9 0 -16 -4 -16 -10 0 -17 -43 -50 -54 -41 -6 5 -21 5 -33
0 -28 -10 -31 -23 -3 -14 11 3 20 2 20 -3 0 -11 -48 -22 -67 -15 -7 3 -13 11
-13 19 0 8 -6 11 -16 7 -13 -5 -11 -8 8 -22 19 -13 22 -20 14 -38 -6 -12 -19
-24 -29 -27 -17 -4 -16 -2 4 21 18 19 19 25 7 20 -11 -4 -18 0 -21 11 -3 10
-5 6 -6 -10 -1 -20 -5 -26 -17 -21 -10 4 -17 -2 -21 -16 -3 -14 -9 -18 -17
-13 -16 12 -82 8 -100 -7 -8 -7 -12 -18 -10 -26 7 -18 -26 -24 -51 -8 -11 7
-30 10 -43 6 -23 -6 -31 -23 -10 -23 6 0 1 -9 -11 -19 -20 -18 -37 -19 -81 -5
-13 5 -13 6 0 14 9 6 10 10 3 10 -6 0 -14 8 -16 18 -3 11 -5 7 -6 -10 -1 -30
-21 -50 -21 -22 0 14 -3 15 -12 6 -9 -9 -8 -16 5 -30 9 -10 17 -22 17 -27 0
-4 -9 2 -19 14 -11 13 -25 20 -30 16 -6 -3 -11 -1 -11 5 0 7 -8 9 -19 5 -11
-3 -22 -1 -26 5 -3 5 -1 10 5 10 6 0 8 5 4 11 -4 7 -16 0 -33 -20 -15 -17 -30
-31 -35 -31 -5 0 -3 7 4 15 10 13 9 15 -9 15 -14 0 -20 4 -15 11 3 6 15 9 25
6 11 -3 19 0 19 8 0 9 -11 10 -42 5 -24 -5 -50 -4 -58 1 -8 4 -11 9 -7 9 5 0
2 7 -7 15 -13 14 -15 166 -16 1322 0 719 -4 1310 -8 1314 -4 3 -24 -13 -45
-37z m608 -2584 c3 -5 1 -10 -4 -10 -6 0 -11 5 -11 10 0 6 2 10 4 10 3 0 8 -4
11 -10z m-131 -44 c-3 -9 2 -16 13 -18 10 -2 14 -6 8 -10 -17 -10 -39 8 -32
26 4 9 9 16 11 16 3 0 3 -6 0 -14z m106 -6 c0 -5 -5 -10 -11 -10 -5 0 -7 5 -4
10 3 6 8 10 11 10 2 0 4 -4 4 -10z m-480 -25 c7 -8 8 -15 2 -15 -5 0 -15 7
-22 15 -7 8 -8 15 -2 15 5 0 15 -7 22 -15z m1890 -425 c0 -5 -2 -10 -4 -10 -3
0 -8 5 -11 10 -3 6 -1 10 4 10 6 0 11 -4 11 -10z m-26 -26 c5 -14 4 -15 -9 -4
-12 10 -15 10 -15 0 0 -8 -3 -11 -6 -7 -7 7 4 27 16 27 4 0 11 -7 14 -16z
m-3924 -19 c0 -8 -2 -15 -4 -15 -2 0 -6 7 -10 15 -3 8 -1 15 4 15 6 0 10 -7
10 -15z m83 -195 c-3 -19 -23 -100 -44 -180 -23 -84 -42 -182 -46 -232 l-6
-86 -24 48 c-29 58 -160 192 -240 245 -80 54 -84 58 -43 50 43 -9 138 -56 192
-96 23 -16 45 -29 49 -29 4 0 11 17 14 38 22 130 51 215 103 297 l25 40 13
-30 c6 -16 10 -46 7 -65z m2596 55 c57 -19 133 -51 169 -72 l67 -37 -120 -17
c-66 -9 -132 -22 -148 -29 -24 -12 -33 -11 -65 4 -20 10 -61 27 -89 37 l-53
18 -6 -25 c-4 -14 -13 -24 -24 -24 -19 0 -36 -17 -27 -27 11 -10 83 -25 117
-24 26 1 31 -2 20 -9 -12 -8 -13 -10 -1 -10 8 0 12 -2 9 -5 -3 -3 -41 4 -85
17 -67 18 -79 25 -75 40 2 10 8 18 13 18 12 0 43 49 35 57 -3 3 -16 -7 -28
-23 l-23 -28 -6 34 c-3 19 -9 42 -13 51 -5 12 12 23 76 52 46 20 99 36 119 37
19 0 81 -16 138 -35z m-3171 -14 c3 -8 -1 -12 -9 -9 -7 2 -15 10 -17 17 -3 8
1 12 9 9 7 -2 15 -10 17 -17z m-43 -11 c-3 -5 -11 -10 -16 -10 -6 0 -7 5 -4
10 3 6 11 10 16 10 6 0 7 -4 4 -10z m3075 -120 c0 -5 -7 -10 -15 -10 -8 0 -15
5 -15 10 0 6 7 10 15 10 8 0 15 -4 15 -10z m-2192 -47 c-47 -52 -125 -171
-173 -267 -18 -36 -37 -61 -47 -62 -16 -2 -18 7 -18 64 0 76 10 97 84 179 49
55 158 133 184 133 9 0 -2 -18 -30 -47z m-523 -317 c91 -35 89 -52 -22 -216
-24 -37 -171 -190 -240 -251 -22 -20 -60 -69 -83 -108 -26 -46 -47 -71 -55
-67 -7 2 -84 25 -172 49 -142 40 -166 44 -238 40 -97 -5 -94 13 4 23 l64 7 19
46 c97 227 195 369 286 415 50 25 151 60 217 75 72 16 156 12 220 -13z m2693
2 c3 -14 -4 -18 -32 -18 -38 0 -57 17 -35 31 22 14 63 6 67 -13z m-430 -5
c-15 -2 -42 -2 -60 0 -18 2 -6 4 27 4 33 0 48 -2 33 -4z m381 -56 c13 -6 24
-16 23 -22 -1 -28 -150 -27 -159 1 -9 28 92 44 136 21z m-2541 -93 c27 -19 57
-74 45 -83 -18 -16 -182 -121 -188 -121 -3 0 10 19 29 43 40 49 75 121 76 155
0 26 8 27 38 6z m-886 -246 c-70 -89 -187 -206 -197 -196 -9 8 41 137 61 160
35 38 159 105 173 92 2 -2 -15 -27 -37 -56z m1308 -128 c0 -5 -5 -10 -11 -10
-5 0 -7 5 -4 10 3 6 8 10 11 10 2 0 4 -4 4 -10z m-1357 -57 c-7 -2 -19 -2 -25
0 -7 3 -2 5 12 5 14 0 19 -2 13 -5z m2627 -85 c-92 -56 -298 -129 -365 -128
-22 1 -10 8 50 29 44 16 127 47 185 69 137 52 133 50 150 51 8 1 -1 -9 -20
-21z m-1438 -190 c-7 -7 -12 -8 -12 -2 0 14 12 26 19 19 2 -3 -1 -11 -7 -17z
m-98 -13 c3 -8 1 -15 -4 -15 -6 0 -10 4 -10 9 0 5 -10 7 -22 5 -21 -4 -22 -4
-3 5 28 13 32 13 39 -4z m56 -25 c0 -5 -2 -10 -4 -10 -3 0 -8 5 -11 10 -3 6
-1 10 4 10 6 0 11 -4 11 -10z m-110 -30 c0 -5 -5 -10 -11 -10 -5 0 -7 5 -4 10
3 6 8 10 11 10 2 0 4 -4 4 -10z m-270 -44 c0 -10 -9 -13 -27 -11 -40 5 -40 5
-18 15 30 13 45 12 45 -4z m1225 -70 c14 -10 17 -21 12 -51 -8 -49 -64 -168
-76 -161 -5 3 -25 31 -46 61 -30 45 -36 63 -33 97 2 34 8 45 28 55 33 17 92
16 115 -1z m1958 -18 c9 -7 23 -32 32 -56 l15 -43 -35 20 c-19 12 -51 30 -70
42 -29 17 -33 24 -24 35 14 17 60 18 82 2z m-1762 -94 c28 -30 31 -25 -72 -84
-33 -19 -72 -45 -85 -57 -14 -13 -27 -23 -30 -23 -21 0 40 155 69 175 35 24
90 19 118 -11z m619 -114 c0 -5 -8 -10 -17 -10 -15 0 -16 2 -3 10 19 12 20 12
20 0z"/>
<path d="M4335 5590 c-3 -5 -1 -10 4 -10 6 0 11 5 11 10 0 6 -2 10 -4 10 -3 0
-8 -4 -11 -10z"/>
<path d="M4391 5553 c3 -21 -2 -33 -16 -33 -8 0 -15 4 -15 9 0 5 -7 11 -15 15
-9 3 -15 0 -15 -10 0 -9 5 -12 13 -8 8 6 8 3 -2 -9 -7 -9 -11 -23 -8 -32 4 -8
2 -17 -3 -20 -6 -4 -8 -140 -6 -348 2 -188 5 -580 7 -872 2 -291 5 -492 6
-445 2 47 8 89 13 94 7 7 10 -1 11 -20 1 -17 3 -22 6 -11 2 9 9 15 14 12 5 -4
9 5 9 19 0 14 4 26 9 26 10 0 18 -35 28 -127 5 -52 8 -62 14 -43 12 41 11
1748 -1 1755 -6 4 -8 11 -4 16 3 6 -2 17 -12 24 -21 16 -35 19 -33 8z m34 -23
c3 -5 1 -10 -4 -10 -6 0 -11 5 -11 10 0 6 2 10 4 10 3 0 8 -4 11 -10z"/>
<path d="M5571 4576 c-10 -12 -8 -13 8 -9 12 3 21 9 21 14 0 14 -16 11 -29 -5z"/>
<path d="M5510 4530 c0 -5 5 -10 10 -10 6 0 10 5 10 10 0 6 -4 10 -10 10 -5 0
-10 -4 -10 -10z"/>
<path d="M5288 4433 c6 -2 18 -2 25 0 6 3 1 5 -13 5 -14 0 -19 -2 -12 -5z"/>
<path d="M5160 4309 c0 -5 5 -7 10 -4 6 3 10 8 10 11 0 2 -4 4 -10 4 -5 0 -10
-5 -10 -11z"/>
<path d="M5116 4291 c-3 -5 1 -11 9 -15 8 -3 15 -1 15 4 0 13 -18 22 -24 11z"/>
<path d="M4990 4240 c0 -5 5 -10 11 -10 5 0 7 5 4 10 -3 6 -8 10 -11 10 -2 0
-4 -4 -4 -10z"/>
<path d="M4887 4185 c-4 -8 -2 -17 3 -20 6 -4 10 -4 10 -1 0 2 3 11 6 20 3 9
2 16 -4 16 -5 0 -12 -7 -15 -15z"/>
<path d="M3845 3950 c-16 -31 -29 -41 -19 -15 4 10 0 15 -10 15 -10 0 -16 -7
-14 -16 2 -11 -6 -17 -24 -20 -16 -1 -28 2 -28 7 0 6 -4 8 -10 4 -5 -3 -6 -13
-3 -22 4 -11 3 -14 -5 -9 -7 4 -12 1 -12 -8 0 -19 -63 -48 -105 -49 -27 0 -58
-24 -50 -37 2 -3 -19 -4 -46 -3 -47 2 -55 -3 -50 -30 1 -5 -3 -5 -9 -2 -6 4
-9 13 -6 21 4 10 -3 14 -27 14 -30 -1 -31 -2 -13 -15 17 -13 15 -14 -20 -8
-22 3 -41 10 -44 14 -3 4 -17 -1 -30 -11 l-25 -20 33 0 32 0 0 -115 c0 -77 4
-115 11 -115 19 0 183 53 204 66 11 7 46 20 77 29 31 9 68 25 82 36 23 18 26
19 26 4 0 -15 8 -16 58 -11 99 12 92 3 92 127 0 76 -5 121 -15 147 -13 30 -18
34 -26 22 -9 -12 -10 -10 -6 8 7 30 0 28 -18 -8z m-240 -130 c3 -5 1 -10 -4
-10 -6 0 -11 5 -11 10 0 6 2 10 4 10 3 0 8 -4 11 -10z"/>
<path d="M2790 3949 c0 -5 5 -7 10 -4 6 3 10 8 10 11 0 2 -4 4 -10 4 -5 0 -10
-5 -10 -11z"/>
<path d="M2497 3904 c-10 -13 -25 -24 -33 -24 -8 0 -13 -4 -9 -9 3 -6 14 -9
25 -8 10 1 17 3 15 6 -3 2 2 12 11 22 9 10 14 22 13 27 -2 6 -12 -1 -22 -14z"/>
<path d="M2660 3875 c-7 -9 -11 -18 -8 -20 3 -3 11 1 18 10 7 9 11 18 8 20 -3
3 -11 -1 -18 -10z"/>
<path d="M3667 3883 c-12 -12 -7 -22 8 -17 8 4 15 10 15 15 0 11 -14 12 -23 2z"/>
<path d="M2506 3787 c3 -10 9 -15 12 -12 3 3 0 11 -7 18 -10 9 -11 8 -5 -6z"/>
<path d="M5925 3780 c-18 -8 -17 -9 8 -9 15 -1 27 4 27 9 0 12 -8 12 -35 0z"/>
<path d="M6301 3763 c-1 -6 -4 -20 -7 -30 -5 -17 -5 -17 6 0 6 10 9 23 6 30
-3 9 -5 9 -5 0z"/>
<path d="M1245 3710 c3 -5 8 -10 11 -10 2 0 4 5 4 10 0 6 -5 10 -11 10 -5 0
-7 -4 -4 -10z"/>
<path d="M2460 3710 c0 -5 5 -10 10 -10 6 0 10 5 10 10 0 6 -4 10 -10 10 -5 0
-10 -4 -10 -10z"/>
<path d="M6256 3712 c-2 -4 0 -14 6 -22 8 -12 9 -12 5 2 -3 9 -1 19 6 22 9 3
9 5 0 5 -6 1 -14 -3 -17 -7z"/>
<path d="M1275 3700 c-3 -5 -1 -10 4 -10 6 0 11 5 11 10 0 6 -2 10 -4 10 -3 0
-8 -4 -11 -10z"/>
<path d="M2306 3684 c-8 -21 -8 -24 5 -24 5 0 8 4 5 9 -4 5 -1 11 6 13 8 3 9
6 1 11 -6 4 -14 0 -17 -9z"/>
<path d="M2380 3676 c0 -9 5 -16 10 -16 6 0 10 4 10 9 0 6 -4 13 -10 16 -5 3
-10 -1 -10 -9z"/>
<path d="M5505 3638 c5 -11 2 -18 -5 -18 -10 0 -10 -3 0 -15 7 -8 17 -15 22
-15 11 0 1 40 -14 55 -6 6 -7 4 -3 -7z"/>
<path d="M2203 3633 c-7 -3 -13 -12 -13 -21 0 -15 2 -15 17 1 18 18 16 27 -4
20z"/>
<path d="M6165 3630 c3 -5 8 -10 11 -10 2 0 4 5 4 10 0 6 -5 10 -11 10 -5 0
-7 -4 -4 -10z"/>
<path d="M1985 3610 c-3 -5 -1 -10 4 -10 6 0 11 5 11 10 0 6 -2 10 -4 10 -3 0
-8 -4 -11 -10z"/>
<path d="M1490 3590 c0 -5 5 -10 11 -10 5 0 7 5 4 10 -3 6 -8 10 -11 10 -2 0
-4 -4 -4 -10z"/>
<path d="M1680 3579 c0 -5 5 -7 10 -4 6 3 10 8 10 11 0 2 -4 4 -10 4 -5 0 -10
-5 -10 -11z"/>
<path d="M5650 3579 c0 -5 5 -7 10 -4 6 3 10 8 10 11 0 2 -4 4 -10 4 -5 0 -10
-5 -10 -11z"/>
<path d="M1840 3569 c0 -5 5 -7 10 -4 6 3 10 8 10 11 0 2 -4 4 -10 4 -5 0 -10
-5 -10 -11z"/>
<path d="M3645 3557 c86 -29 120 -46 109 -56 -5 -5 -31 -14 -59 -21 -27 -7
-90 -28 -138 -47 l-88 -35 -57 15 c-73 20 -218 32 -226 19 -3 -5 32 -11 87
-15 87 -5 157 -21 157 -35 -1 -4 -20 -19 -43 -34 -116 -73 -179 -153 -198
-250 l-12 -58 -72 0 c-106 0 -225 -12 -219 -21 3 -5 72 -9 153 -9 l148 0 17
-42 c9 -24 35 -65 58 -92 l41 -48 191 6 c259 8 322 17 370 49 21 15 45 27 52
27 7 0 19 3 28 6 11 4 16 1 16 -11 0 -14 7 -16 43 -11 86 13 92 12 90 -7 0
-12 4 -16 13 -13 7 3 17 -1 21 -8 10 -16 47 -36 65 -36 7 1 -2 7 -19 15 -25
11 -33 20 -33 40 0 30 41 52 103 57 34 2 35 4 40 47 3 26 6 164 7 309 l1 262
-43 0 c-65 0 -261 -19 -363 -34 l-90 -14 -60 29 c-33 16 -82 31 -110 34 l-50
6 70 -24z m304 -443 c1 -1 0 -7 -4 -13 -8 -13 -62 -14 -70 -2 -13 21 52 35 74
15z m286 -73 c-14 -12 -162 -24 -150 -12 14 13 42 19 105 20 31 1 50 -3 45 -8z
m-415 -54 c77 -39 -51 -84 -170 -61 -34 7 -49 29 -32 46 26 26 160 36 202 15z
m268 -14 c2 -8 -6 -13 -22 -13 -28 0 -43 15 -24 23 20 8 41 3 46 -10z"/>
<path d="M5885 3569 c-10 -15 3 -25 16 -12 7 7 7 13 1 17 -6 3 -14 1 -17 -5z"/>
<path d="M1652 3540 c0 -14 2 -19 5 -12 2 6 2 18 0 25 -3 6 -5 1 -5 -13z"/>
<path d="M1891 3543 c-16 -18 -8 -28 13 -16 8 4 12 13 8 20 -5 8 -11 7 -21 -4z"/>
<path d="M4320 3258 l0 -303 65 3 65 4 0 39 c0 35 -3 39 -25 39 -14 0 -25 5
-25 11 0 7 10 9 25 5 l25 -6 0 255 0 255 -65 0 -65 0 0 -302z m65 -208 c3 -6
-4 -10 -17 -10 -18 0 -20 2 -8 10 19 12 18 12 25 0z"/>
<path d="M5200 3322 c0 -4 5 -13 11 -19 13 -13 39 -6 39 9 0 6 -7 8 -15 4 -8
-3 -15 -1 -15 4 0 6 -4 10 -10 10 -5 0 -10 -4 -10 -8z"/>
<path d="M7531 3004 c-74 -88 -134 -188 -193 -327 -38 -91 -43 -97 -50 -72 -4
16 -5 32 -2 36 16 26 -10 386 -29 405 -12 12 -47 -175 -53 -286 l-7 -125 -18
52 c-19 56 -70 153 -80 153 -9 0 -9 -139 1 -195 5 -27 11 -65 14 -84 5 -28 3
-32 -10 -27 -13 5 -14 3 -7 -6 6 -7 14 -42 18 -78 l7 -65 -42 39 c-54 49 -109
73 -187 82 -62 6 -114 0 -111 -14 1 -4 -4 -25 -10 -47 -7 -22 -17 -71 -22
-109 -6 -39 -12 -71 -14 -73 -6 -6 -170 36 -280 72 -60 19 -165 51 -235 69
-69 19 -166 48 -216 65 -111 38 -121 39 -127 4 -3 -16 -7 -34 -9 -42 -4 -16
39 -30 466 -158 379 -113 344 -107 480 -84 65 11 120 23 123 26 4 3 5 24 3 45
-3 42 18 150 29 150 9 0 33 -21 50 -44 11 -14 11 -17 2 -12 -18 11 -42 -12
-42 -40 0 -13 -4 -24 -10 -24 -11 0 -13 -42 -4 -77 l6 -21 48 24 c57 29 75 31
65 7 -3 -10 -9 -31 -12 -46 -7 -35 -26 -43 -60 -28 -36 17 -38 9 -9 -38 23
-36 24 -41 9 -42 -10 0 -46 -2 -81 -3 -41 -2 -68 -8 -79 -18 -14 -15 -7 -17
73 -23 115 -10 631 2 709 16 81 15 95 32 83 101 -12 71 -37 126 -60 134 -10 3
-31 3 -47 -1 -25 -5 -30 -2 -41 26 -13 31 -14 31 -63 24 -28 -3 -59 -11 -69
-16 -25 -14 -23 -5 16 60 57 93 140 170 232 216 43 21 46 24 22 24 -42 1 -129
-19 -169 -40 -20 -10 -61 -45 -92 -78 l-56 -61 25 88 c13 48 36 132 50 187 28
110 45 159 98 284 20 46 35 85 33 87 -2 2 -31 -30 -66 -72z m-381 -806 c10
-18 18 -34 15 -36 -9 -9 -55 32 -55 49 0 29 18 23 40 -13z"/>
<path d="M6750 3002 c-36 -9 -57 -18 -47 -20 18 -4 24 -32 6 -32 -6 0 15 -23
46 -51 30 -29 54 -53 52 -55 -7 -8 -153 39 -163 52 -9 11 -16 8 -40 -17 -28
-29 -32 -31 -96 -27 -38 2 -68 1 -68 -2 0 -3 30 -17 67 -32 47 -19 70 -24 79
-17 11 9 54 6 217 -17 l49 -7 -6 -51 c-4 -28 -13 -80 -20 -116 -8 -36 -12 -66
-11 -68 2 -2 14 2 27 9 15 9 55 13 113 12 49 -1 83 2 76 6 -11 7 -9 24 10 87
12 44 26 84 30 89 4 6 5 39 3 75 -4 73 -13 84 -128 161 -67 44 -93 47 -196 21z"/>
<path d="M7087 2990 c28 -31 39 -39 27 -17 -13 22 -37 47 -46 47 -4 0 4 -13
19 -30z"/>
<path d="M6638 2973 c6 -2 18 -2 25 0 6 3 1 5 -13 5 -14 0 -19 -2 -12 -5z"/>
<path d="M5138 2811 c-64 -4 -120 -10 -124 -14 -4 -4 -1 -7 6 -7 8 0 33 -9 56
-21 30 -14 41 -25 37 -35 -4 -10 22 -2 75 25 76 38 109 63 80 59 -7 -1 -66 -4
-130 -7z"/>
<path d="M3383 2789 c14 -8 22 -8 30 0 8 8 3 11 -18 11 -26 -1 -28 -2 -12 -11z"/>
<path d="M3295 2580 c3 -5 14 -10 23 -10 15 0 15 2 2 10 -20 13 -33 13 -25 0z"/>
<path d="M5955 2223 c-45 -10 -51 -14 -35 -22 25 -14 109 -23 143 -15 l31 6
-23 19 c-22 18 -68 23 -116 12z"/>
<path d="M2140 2036 c0 -2 14 -6 30 -8 17 -3 30 -1 30 4 0 4 -13 8 -30 8 -16
0 -30 -2 -30 -4z"/>
<path d="M6250 1938 l-25 -11 25 -7 c14 -5 65 -8 113 -9 79 -1 88 1 85 17 -3
14 -16 17 -88 19 -47 1 -96 -3 -110 -9z"/>
<path d="M4518 1833 c7 -3 16 -2 19 1 4 3 -2 6 -13 5 -11 0 -14 -3 -6 -6z"/>
<path d="M4578 1833 c7 -3 16 -2 19 1 4 3 -2 6 -13 5 -11 0 -14 -3 -6 -6z"/>
<path d="M4628 1833 c7 -3 16 -2 19 1 4 3 -2 6 -13 5 -11 0 -14 -3 -6 -6z"/>
<path d="M4438 1823 c7 -3 16 -2 19 1 4 3 -2 6 -13 5 -11 0 -14 -3 -6 -6z"/>
<path d="M4668 1823 c7 -3 16 -2 19 1 4 3 -2 6 -13 5 -11 0 -14 -3 -6 -6z"/>
<path d="M2720 1813 c-104 -11 -66 -33 58 -33 91 0 112 9 73 30 -19 10 -59 11
-131 3z"/>
<path d="M4390 1816 c0 -2 7 -6 15 -10 8 -3 15 -1 15 4 0 6 -7 10 -15 10 -8 0
-15 -2 -15 -4z"/>
<path d="M6285 1561 c-3 -6 -39 -11 -78 -12 -78 0 -124 -12 -96 -23 8 -4 58
-5 110 -4 85 3 94 5 94 22 0 22 -20 33 -30 17z"/>
<path d="M2878 1502 c-21 -2 -38 -7 -38 -13 0 -5 48 -9 110 -9 67 0 110 4 110
10 0 6 -15 11 -32 11 -18 1 -51 2 -73 3 -22 1 -57 0 -77 -2z"/>
<path d="M5865 1382 c-3 -3 -35 -5 -71 -4 -49 2 -65 -1 -62 -10 3 -9 34 -14
94 -16 103 -4 157 4 151 21 -4 12 -101 20 -112 9z"/>
</g>
</svg>
